<?xml version="1.0" encoding="utf-8"?>
<!-- Generator: Adobe Illustrator 27.5.0, SVG Export Plug-In . SVG Version: 6.00 Build 0)  -->
<svg version="1.1" xmlns="http://www.w3.org/2000/svg" xmlns:xlink="http://www.w3.org/1999/xlink" x="0px" y="0px"
	 viewBox="0 0 750 500" style="enable-background:new 0 0 750 500;" xml:space="preserve">
<g id="BACKGROUND">
	<rect style="fill:#FFFCFA;" width="750" height="500"/>
</g>
<g id="OBJECT">
	<g>
		<polygon style="fill:#5D79AF;" points="338.02,432.16 340.521,431.86 340.621,432.36 338.17,433.244 		"/>
		<path style="fill:#F8E8DD;" d="M604.085,398.324c5.852-21.418,8.994-43.954,8.994-67.228
			c0-140.542-113.932-254.474-254.474-254.474S104.131,190.553,104.131,331.095c0,23.274,3.142,45.811,8.994,67.228H604.085z"/>
		
			<line style="fill:none;stroke:#F1A24C;stroke-width:2;stroke-miterlimit:10;" x1="74.229" y1="398.324" x2="658.141" y2="398.324"/>
		<g>
			<path style="fill:#A3A357;" d="M132.385,365.642c-2.793,0.97-5.881,2.928-8.68,5.027c3.16-4.94,6.656-10.888,6.656-10.888
				l19.609,2.984c-2.558-3.837-16.945-11.723-23.765-5.755c-2.178,1.906-4.301,4.865-6.183,8.01
				c-0.771-5.699-2.026-11.674-4.053-14.784c-4.583-7.034-23.548-11.243-23.548-11.243c1.599,3.304,17.797,12.895,17.797,12.895
				l2.826,11.48c-1.558-2.386-3.24-4.543-4.957-6.045c-6.821-5.968-21.208,1.918-23.765,5.755l19.609-2.984
				c0,0,3.496,5.948,6.656,10.888c-2.8-2.098-5.888-4.057-8.68-5.027c-7.673-2.664-15.666,12.788-15.666,12.788l14.174-9.272
				c0,0,8.281,6.369,13.018,8.957c-0.217,0.533-0.336,0.841-0.336,0.841s0.683-0.003,1.649-0.185
				c0.491,0.216,0.911,0.361,1.228,0.405c1.576,0.217,2.457,0.019,2.944-0.228c1.289,0.319,2.278,0.321,2.278,0.321
				s-0.092-0.238-0.261-0.656l0.261,0.029c0,0-0.011-0.365-0.039-1.006c4.778-2.682,12.721-8.792,12.721-8.792l14.174,9.272
				C148.051,378.431,140.059,362.978,132.385,365.642z"/>
			<path style="fill:#F1A24C;" d="M131.975,376.293h-9.836h-9.986h-9.836c0,0-1.705,11.581,6.394,21.35h3.442h9.986h3.442
				C133.68,387.874,131.975,376.293,131.975,376.293z"/>
		</g>
		<rect x="547.776" y="94.652" style="fill:#B2B661;" width="63.34" height="9.949"/>
		<g>
			<polygon style="fill:#B2B661;" points="405.939,438.43 438.635,451.283 495.538,440.904 464.425,427.535 			"/>
			<path style="fill:#A3A357;" d="M438.635,451.283v9.448l56.903-11.874c0,0,2.514-3.074,0-7.952L438.635,451.283z"/>
			<polygon style="fill:#F8E8DD;" points="408.43,439.409 408.43,448.282 438.635,460.73 438.635,451.283 			"/>
			<polygon style="fill:#898743;" points="405.939,438.43 405.939,439.409 437.741,452.013 437.741,458.688 406.206,446.239 
				406.206,447.516 438.635,460.73 438.635,452.368 438.635,451.283 438.635,451.051 			"/>
		</g>
		
			<ellipse transform="matrix(0.2282 -0.9736 0.9736 0.2282 143.893 356.5769)" style="fill:none;stroke:#728BCB;stroke-miterlimit:10;" cx="296.864" cy="87.525" rx="15.471" ry="15.471"/>
		
			<ellipse transform="matrix(0.7071 -0.7071 0.7071 0.7071 73.7893 353.1935)" style="fill:none;stroke:#B2B661;stroke-miterlimit:10;stroke-dasharray:4;" cx="463.237" cy="87.525" rx="18.629" ry="18.629"/>
		
			<ellipse transform="matrix(0.1598 -0.9872 0.9872 0.1598 361.9417 678.3375)" style="fill:#FFC593;" cx="579.446" cy="126.554" rx="8.358" ry="8.358"/>
		<path style="fill:#F1A24C;" d="M399.661,62.992c-0.2-0.517-0.415-1.026-0.649-1.524l5.142-10.083l-1.754-1.547l-4.386-3.867
			l-1.755-1.547l-8.336,5.669c-0.978-0.489-1.994-0.912-3.042-1.267l-2.451-9.557h-2.339h-5.848h-2.339l-2.446,9.537
			c-1.069,0.359-2.105,0.789-3.101,1.287l-8.336-5.669l-1.755,1.547l-4.386,3.867l-1.754,1.547l5.142,10.083
			c-0.231,0.494-0.445,0.998-0.643,1.509l-9.704,2.488v2.339v5.848v2.339l8.994,2.306c0.217,0.766,0.471,1.516,0.76,2.248
			l-5.204,10.204l1.754,1.547l4.386,3.867l1.754,1.547l7.596-5.166c1.287,0.753,2.649,1.393,4.074,1.9l2.159,8.42h2.339h5.848h2.339
			l2.038-7.948c1.699-0.483,3.323-1.142,4.846-1.966l6.999,4.759l1.754-1.547l4.386-3.867l1.755-1.547l-4.493-8.81
			c0.549-1.171,1.005-2.393,1.362-3.657l8.936-2.291v-2.339v-5.848v-2.339L399.661,62.992z M388.986,71.697
			c0,6.202-5.028,11.23-11.23,11.23c-6.202,0-11.231-5.028-11.231-11.23c0-6.202,5.028-11.231,11.231-11.231
			C383.958,60.466,388.986,65.494,388.986,71.697z"/>
		<g>
			<circle style="fill:none;stroke:#B2B661;stroke-miterlimit:10;stroke-dasharray:4;" cx="141.652" cy="170.502" r="29.16"/>
			<path style="fill:none;stroke:#A3A357;stroke-miterlimit:10;" d="M154.882,165.764c-0.117-0.303-0.244-0.602-0.381-0.894
				l3.017-5.916l-1.029-0.908l-2.573-2.269l-1.029-0.908l-4.891,3.326c-0.574-0.287-1.17-0.535-1.785-0.743l-1.438-5.607h-1.372
				h-3.431h-1.372l-1.435,5.595c-0.627,0.21-1.235,0.463-1.82,0.755l-4.891-3.326l-1.029,0.908l-2.574,2.269l-1.029,0.908
				l3.017,5.916c-0.136,0.29-0.261,0.585-0.377,0.885l-5.693,1.46v1.372v3.431v1.372l5.277,1.353
				c0.127,0.449,0.276,0.889,0.446,1.319l-3.053,5.987l1.029,0.908l2.573,2.269l1.029,0.908l4.457-3.031
				c0.755,0.442,1.554,0.817,2.39,1.115l1.267,4.94h1.372h3.431h1.372l1.196-4.663c0.997-0.283,1.95-0.67,2.844-1.153l4.106,2.793
				l1.029-0.908l2.573-2.269l1.029-0.908l-2.636-5.169c0.322-0.687,0.59-1.404,0.799-2.146l5.243-1.344v-1.372v-3.431v-1.372
				L154.882,165.764z M148.619,170.871c0,3.639-2.95,6.589-6.589,6.589s-6.589-2.95-6.589-6.589c0-3.639,2.95-6.589,6.589-6.589
				S148.619,167.232,148.619,170.871z"/>
		</g>
		<path style="fill:#FFC593;" d="M279.152,440.116l49.079-9.874c0,0,4.836,3.16,3.102,9.805l-58.598,12.32L279.152,440.116z"/>
		<path style="fill:#F1A24C;" d="M328.231,430.242l9.958,1.589l0.36,1.621l-7.217,6.595
			C331.333,440.047,333.034,433.844,328.231,430.242z"/>
		<path style="fill:#B2B661;" d="M282.473,450.317l-15.343,3.203c0,0-5.267-2.531-2.998-10.067l15.315-3.399
			C279.448,440.054,283.939,443.649,282.473,450.317z"/>
		<path style="fill:#898743;" d="M267.13,453.52c0,0-5.267-2.531-2.998-10.067C264.133,443.453,268.802,447.114,267.13,453.52z"/>
		<g>
			
				<ellipse transform="matrix(0.7071 -0.7071 0.7071 0.7071 2.3116 168.1116)" style="fill:none;stroke:#812C53;stroke-miterlimit:10;" cx="204.084" cy="81.265" rx="22.145" ry="22.145"/>
			<ellipse style="fill:none;stroke:#812C53;stroke-miterlimit:10;" cx="204.084" cy="81.265" rx="7.26" ry="22.145"/>
			<path style="fill:none;stroke:#812C53;stroke-miterlimit:10;" d="M184.167,71.575c0,0,19.083,7.725,39.834,0"/>
			<path style="fill:none;stroke:#812C53;stroke-miterlimit:10;" d="M224.001,91.387c0,0-19.083-7.725-39.834,0"/>
			<line style="fill:none;stroke:#812C53;stroke-miterlimit:10;" x1="181.939" y1="81.266" x2="226.23" y2="81.266"/>
		</g>
		<g>
			<path style="fill:#728BCB;" d="M115.521,266.355c-1.083,1.163-2.575,1.923-4.476,2.283v0.797c0,1.31-1.062,2.372-2.372,2.372l0,0
				c-1.31,0-2.372-1.062-2.372-2.372v-0.698c-2.094-0.249-3.841-0.789-5.24-1.62c-0.664-0.395-0.922-1.23-0.642-1.95l0.274-0.705
				c0.354-0.911,1.43-1.273,2.282-0.794c0.007,0.004,0.014,0.008,0.02,0.011c0.678,0.378,1.455,0.698,2.333,0.957
				c0.877,0.259,1.767,0.389,2.671,0.389c1.104,0,2.037-0.249,2.801-0.747c0.719-0.469,1.067-0.88,1.107-1.826
				c0.023-0.565-0.214-1.12-0.627-1.506c-0.451-0.422-1-0.766-1.651-1.031c-0.638-0.259-1.469-0.534-2.492-0.827
				c-1.382-0.398-2.578-0.877-3.589-1.435s-1.834-1.312-2.472-2.262c-0.637-0.95-0.957-2.137-0.957-3.558
				c0-1.063,0.243-2.037,0.728-2.921c0.485-0.884,1.189-1.632,2.113-2.243c0.924-0.611,2.037-1.03,3.34-1.256v-1.495
				c0-1.31,1.062-2.372,2.372-2.372l0,0c1.31,0,2.372,1.062,2.372,2.372v1.515c1.13,0.213,2.117,0.538,2.961,0.977
				c0.18,0.094,0.349,0.188,0.507,0.281c0.79,0.47,1.061,1.486,0.662,2.314l0,0c-0.459,0.955-1.639,1.318-2.549,0.775
				c-0.53-0.316-1.056-0.603-1.352-0.708c-0.725-0.259-1.453-0.389-2.183-0.389c-1.13,0-2.077,0.246-2.842,0.738
				c-0.764,0.492-1.146,1.204-1.146,2.134c0,0.997,0.432,1.757,1.296,2.283c0.865,0.525,1.947,0.934,3.25,1.226
				c2.22,0.519,4.023,1.369,5.412,2.552c1.389,1.184,2.084,2.659,2.084,4.427C117.146,263.753,116.604,265.192,115.521,266.355z"/>
		</g>
	</g>
	<g>
		<g>
			<path style="fill:#4C1E3C;" d="M615.868,184.602l36.141,141.65c0.397,1.557,2.084,2.398,3.567,1.779l0,0
				c1.206-0.504,1.86-1.817,1.536-3.083l-36.071-140.891L615.868,184.602z"/>
			<path style="fill:#812C53;" d="M583.695,149.462l18.572,2.968c10.77,1.721,19.255,10.098,21.113,20.846v0
				c1.688,9.765-2.431,19.625-10.565,25.286l-20.689,14.4L583.695,149.462z"/>
			<path style="fill:#602945;" d="M588.965,213.971c-3.861,0.822-7.802,0.206-11.502-1.582
				c-8.294-3.968-15.434-13.736-18.062-26.168c-2.511-11.877-0.286-23.201,5.121-30.279c2.779-3.646,6.408-6.176,10.653-7.078
				c12.521-2.654,25.757,9.768,29.573,27.75C608.555,194.595,601.486,211.316,588.965,213.971z"/>
			<path style="fill:#812C53;" d="M613.737,160.006l12.615,0.434c5.327,0.184,9.667,4.339,10.081,9.653l0,0
				c0.367,4.712-2.467,9.085-6.917,10.675l-10.729,3.833L613.737,160.006z"/>
			<path style="fill:#812C53;" d="M577.463,212.389c-8.294-3.968-15.434-13.736-18.062-26.168
				c-2.511-11.877-0.286-23.201,5.121-30.279c9.053,2.484,24.943,8.463,28.366,20.412
				C596.803,190.01,588.759,205.936,577.463,212.389z"/>
			
				<ellipse transform="matrix(0.7071 -0.7071 0.7071 0.7071 44.3072 468.6199)" style="fill:#FFFFFF;" cx="587.828" cy="180.826" rx="12.177" ry="12.177"/>
			<path style="fill:#B2B661;" d="M670.578,409.556h-21.77v-174.57c0-2.115-1.715-3.83-3.83-3.83l0,0c-2.115,0-3.83,1.715-3.83,3.83
				v174.57h-21.466c-2.601,0-4.923,1.901-5.17,4.49c-0.283,2.97,2.044,5.469,4.956,5.469h51.324c2.911,0,5.239-2.499,4.956-5.469
				C675.501,411.458,673.179,409.556,670.578,409.556z"/>
			<circle style="fill:#F1A24C;" cx="646.259" cy="286.256" r="7.999"/>
		</g>
		<g>
			<g>
				<rect x="321.83" y="344.632" style="fill:#812C53;" width="95.364" height="41.282"/>
				<path style="fill:#812C53;" d="M193.911,333.983V134.609c0-8.127,6.588-14.714,14.714-14.714h318.863
					c8.126,0,14.714,6.588,14.714,14.714v199.374c0,8.127-6.588,14.715-14.715,14.715H208.626
					C200.5,348.698,193.911,342.11,193.911,333.983z"/>
				<path style="fill:#F8E8DD;" d="M532.028,134.469v199.654c0,2.25-1.69,4.109-3.876,4.37c-0.168,0.019-0.345,0.028-0.523,0.028
					H208.492c-2.437,0-4.408-1.97-4.408-4.398V134.469c0-2.428,1.97-4.398,4.408-4.398H527.63
					C530.058,130.07,532.028,132.041,532.028,134.469z"/>
				<path style="fill:#EFD6C5;" d="M528.152,338.492c-0.168,0.019-0.345,0.028-0.523,0.028H208.492c-2.437,0-4.408-1.97-4.408-4.398
					V134.469L528.152,338.492z"/>
				<path style="fill:#FFFFFF;" d="M516.363,323.695H219.751c-1.105,0-2-0.896-2-2v-155.9c0-1.105,0.895-2,2-2h296.612
					c1.105,0,2,0.895,2,2v155.9C518.363,322.8,517.468,323.695,516.363,323.695z"/>
				<path style="fill:#FFFFFF;" d="M507.012,154.492H390.165c-4.182,0-7.571-3.39-7.571-7.571v-0.266
					c0-4.182,3.39-7.571,7.571-7.571h116.848c4.182,0,7.571,3.39,7.571,7.571v0.266
					C514.584,151.102,511.194,154.492,507.012,154.492z"/>
				<polygon style="fill:#602945;" points="417.194,348.702 417.194,375.117 321.83,352.07 321.83,348.702 				"/>
				<g>
					<rect x="231.124" y="191.123" style="fill:none;stroke:#D6D6D6;stroke-miterlimit:10;" width="270.377" height="116.291"/>
					<line style="fill:none;stroke:#D6D6D6;stroke-miterlimit:10;" x1="231.124" y1="201.589" x2="501.501" y2="201.589"/>
					<line style="fill:none;stroke:#D6D6D6;stroke-miterlimit:10;" x1="231.124" y1="213.364" x2="501.501" y2="213.364"/>
					<line style="fill:none;stroke:#D6D6D6;stroke-miterlimit:10;" x1="231.124" y1="225.138" x2="501.501" y2="225.138"/>
					<line style="fill:none;stroke:#D6D6D6;stroke-miterlimit:10;" x1="231.124" y1="236.913" x2="501.501" y2="236.913"/>
					<line style="fill:none;stroke:#D6D6D6;stroke-miterlimit:10;" x1="231.124" y1="248.687" x2="501.501" y2="248.687"/>
					<line style="fill:none;stroke:#D6D6D6;stroke-miterlimit:10;" x1="231.124" y1="260.462" x2="501.501" y2="260.462"/>
					<line style="fill:none;stroke:#D6D6D6;stroke-miterlimit:10;" x1="231.124" y1="272.236" x2="501.501" y2="272.236"/>
					<line style="fill:none;stroke:#D6D6D6;stroke-miterlimit:10;" x1="231.124" y1="284.011" x2="501.501" y2="284.011"/>
					<line style="fill:none;stroke:#D6D6D6;stroke-miterlimit:10;" x1="231.124" y1="295.785" x2="501.501" y2="295.785"/>
				</g>
				<g>
					<polygon style="fill:#812C53;" points="508.335,388.586 224.584,388.586 212.374,400.36 212.374,413.152 526.651,413.152 
						526.651,400.36 					"/>
					<polygon style="fill:#FF6545;" points="500.994,384.879 371.983,384.879 362.971,384.879 233.96,384.879 222.84,394.473 
						222.84,400.36 362.971,400.36 371.983,400.36 512.114,400.36 512.114,394.473 					"/>
				</g>
				<g>
					
						<rect x="452.419" y="176.477" transform="matrix(-1 -1.224647e-16 1.224647e-16 -1 920.159 483.6075)" style="fill:#728BCB;" width="15.321" height="130.654"/>
					
						<rect x="414.309" y="194.286" transform="matrix(-1 -1.224647e-16 1.224647e-16 -1 843.9383 501.417)" style="fill:#FF6545;" width="15.321" height="112.845"/>
					
						<rect x="376.198" y="206.22" transform="matrix(-1 -1.224647e-16 1.224647e-16 -1 767.7176 513.351)" style="fill:#B2B661;" width="15.321" height="100.911"/>
					
						<rect x="338.088" y="227.066" transform="matrix(-1 -1.224647e-16 1.224647e-16 -1 691.4969 534.1972)" style="fill:#728BCB;" width="15.321" height="80.064"/>
					
						<rect x="299.978" y="248.924" transform="matrix(-1 -1.224647e-16 1.224647e-16 -1 615.2763 556.0553)" style="fill:#F1A24C;" width="15.321" height="58.206"/>
					
						<rect x="261.867" y="275.556" transform="matrix(-1 -1.224647e-16 1.224647e-16 -1 539.0556 582.6873)" style="fill:#FF6447;" width="15.321" height="31.574"/>
					<polygon style="fill:#FF6545;" points="440.372,167.039 430.463,171.888 433.928,173.016 429.141,178.512 393.836,178.512 
						383.347,194.921 350.26,194.921 324.647,228.755 301.434,228.755 275.82,262.588 249.47,262.588 249.47,264.456 
						276.749,264.456 302.363,230.622 325.575,230.622 351.189,196.788 384.37,196.788 394.86,180.38 429.991,180.38 
						435.336,174.243 436.93,177.52 					"/>
				</g>
			</g>
			<g>
				<polygon style="fill:#FFC593;" points="562.921,435.895 563.732,443.077 571.378,443.077 571.378,436.358 				"/>
				<path style="fill:#602945;" d="M563.55,441.463c0,0-11.403,6.828-11.403,7.986c0,1.159,0.348,1.738,7.414,1.738
					c7.067,0,11.353,0.348,12.28,0c0.927-0.348-0.463-9.724-0.463-9.724S567.306,440.428,563.55,441.463z"/>
				<polygon style="fill:#FFC593;" points="588.756,435.895 589.683,441.003 597.56,441.003 597.56,436.358 				"/>
				<path style="fill:#602945;" d="M597.56,440.529h-7.964l-1.136,3.751c-1.296,1.154-3.211,2.824-4.223,3.547
					c-1.622,1.158-2.664,2.858,2.085,3.514c0.322,0.044,0.611,0.038,0.88,0h9.878c1.02,0,1.83-0.857,1.766-1.876
					C598.634,446.099,597.56,440.529,597.56,440.529z"/>
				<path style="fill:#FFC593;" d="M600.399,299.571c0,0,1.097,15.194,2.194,26.249c1.097,11.054-4.718,29.321-4.718,29.321
					s-0.219,3.786-1.207,5.651c-0.987,1.865-2.738,2.523-2.738,2.523l-0.45-14.043l0.79-18.159l-2.985-18.432l2.75-8.502
					L600.399,299.571z"/>
				<path style="fill:#DB8835;" d="M591.841,277.778c0,0,7.241,6.213,12.069,22.67l-10.533,6.802
					C593.377,307.251,594.255,285.169,591.841,277.778z"/>
				<polygon style="fill:#B2B661;" points="591.285,340.928 607.029,344.663 603.577,365.868 590.505,361.706 				"/>
				<path style="fill:#602945;" d="M598.853,437.376l-11.533,1.074l-10.907-81.159l-4.436,81.514l-10.422,0.682
					c0,0,0-0.019-0.009-0.065c-0.149-1.606-2.951-31.19-4.268-47.682c-1.251-15.642-2.148-51.79-2.279-57.3
					c-0.009-0.467-0.019-0.71-0.019-0.71c23.43,4.753,37.998,0,37.998,0L598.853,437.376z"/>
				<path style="fill:#4C1E3C;" d="M560.22,395.456c0.747,25.363,4.062,43.787,4.062,43.787l-2.736,0.177
					c-0.149-1.606-2.951-31.19-4.268-47.682c-1.251-15.642-2.148-51.79-2.279-57.3c1.84,0.607,5.846,1.718,11.225,1.924
					C566.225,336.363,558.67,342.9,560.22,395.456z"/>
				<path style="fill:#FFC593;" d="M577.138,274.121l-10.016,3.657v-7.154c0,0-6.677-2.916-6.995-11.156
					c-0.318-8.24,2.862-16.824,12.4-16.507c9.539,0.318,10.97,10.334,10.175,14.308c-0.795,3.975-5.246,9.221-5.246,9.221
					L577.138,274.121z"/>
				<path style="fill:#602945;" d="M567.568,251.622c0,0-2.621,3.657-1.549,6.757c0,0,1.628-1.987,3.139-1.908
					s2.226,2.146,1.272,4.928c-0.954,2.782-4.054,2.544-4.054,2.544s1.51,2.305,2.703,3.259l8.378-0.711
					c0,0,6.725-6.282,7.52-10.019c0.795-3.737-0.636-4.85-0.636-4.85s1.153-3.498-1.45-6.598c-2.604-3.1-10.155-7.552-13.494-7.552
					c-3.339,0-3.18,1.987-3.18,1.987s-3.18-1.669-3.418,1.51C562.703,242.248,562.796,247.17,567.568,251.622z"/>
				<path style="fill:#F1A24C;" d="M565.87,274.894l-14.184,5.147l3.291,54.418c0,0,10.916,2.633,22.244,2.194
					c11.328-0.439,15.717-2.414,15.717-2.414s3.291-40.155,3.072-46.08c-0.219-5.925-4.169-10.382-4.169-10.382l-6.977-2.692
					C578.763,272.731,572.017,272.663,565.87,274.894z"/>
				<path style="fill:#DB8835;" d="M565.12,275.166c0,0,2.145-3.609,8.143-4.78c5.998-1.17,8.507,3.715,8.507,3.715
					S573.462,272.139,565.12,275.166z"/>
				<path style="fill:#FFC593;" d="M556.623,343.237c-0.329-2.908-1.007-3.145-1.007-3.145L543.368,324l10.055-15.235
					l-10.588-12.267c0,0-11.118,21.065-11.703,27.502c-0.585,6.436,19.31,22.235,19.31,22.235c0.128,0.695,2.505,4.846,2.505,4.846
					s0.219,1.536,0.439,2.853c0.219,1.317,2.194,1.203,2.194,1.203l0.036-4.056C555.616,351.082,556.952,346.144,556.623,343.237z"
					/>
				<path style="fill:#F1A24C;" d="M551.686,280.042l-13.239,16.165l14.976,12.56C553.423,308.766,559.366,292.841,551.686,280.042z
					"/>
				<path style="fill:#DB8835;" d="M553.423,308.766c0,0,3.94-17.297,0-27.102c0,0,5.865,5.336,5.198,16.542
					c-0.667,11.206-4.924,15.09-4.924,15.09L553.423,308.766z"/>
				<path style="fill:#4C1E3C;" d="M576.416,357.289l11.954-6.255c0,0-4.135,3.602-2.935,26.147
					c1.201,22.545,7.723,60.723,7.723,60.723l-5.837,0.545L576.416,357.289z"/>
			</g>
			<g>
				<path style="fill:#FFC593;" d="M170.229,385.078c0,0,5.514,38.849,12.469,55.567l6.156-1.244l-6.083-58.542L170.229,385.078z"/>
				<path style="fill:#812C53;" d="M181.484,437.467c0,0,0.101,7.65,1.468,10.559c1.367,2.91,1.367,2.91,1.367,2.91l2.313-0.467
					l-0.55-2.721c0,0,2.901,1.042,4.467,1.434c1.566,0.392,12.123-1.318,13.427-2.218c1.305-0.901-9.262-4.146-9.262-4.146
					s-3.505,2.271-7.102,0.588C184.014,441.723,181.484,437.467,181.484,437.467z"/>
				<path style="fill:#FFC593;" d="M188.102,437.428c0,0,4.938,4.854,6.611,5.389c1.673,0.535-4.074,3.66-8.258,0.822
					c-4.184-2.838-4.807-5.912-4.807-5.912L188.102,437.428z"/>
				<path style="fill:#FFC593;" d="M156.986,385.413c0,0-2.291,39.171,1.214,56.936h6.281l5.635-58.587L156.986,385.413z"/>
				<polygon style="fill:#B2B661;" points="160.119,273.574 144.495,279.895 153.136,326.049 175.046,325.216 180.146,279.312 
					168.921,275.741 168.921,278.169 				"/>
				<polygon style="fill:#EFEBFF;" points="156.847,293.424 161.523,317.306 177.777,313.647 173.136,290.863 				"/>
				<path style="fill:#FFC593;" d="M141.706,285.556c0.9,6.936,2.669,17.493,5.699,24.466c1.447,3.329,5.264,4.93,8.696,3.747
					l19.359-6.67l-1.976-5.673l-17.867,2.135c0,0-0.807-13.186-3.281-20.455c-0.025-0.075-0.051-0.148-0.078-0.221
					C150.015,276.798,140.871,279.122,141.706,285.556z"/>
				<path style="fill:#EDA36B;" d="M180.146,279.312c0,0,2.654,2.049,2.099,11.486c-0.555,9.437,2.742,19.467-3.503,20.299
					C178.741,311.097,178.988,284.293,180.146,279.312z"/>
				<path style="fill:#FFC593;" d="M182.317,304.23c-0.14,5.491-3.577,6.864-3.577,6.864s-2.204,0.719-4.959-3.782
					c-1.662-2.727-1.513-29.033-1.494-31.582c-0.019,0.009-0.037,0.009-0.037,0.009l-0.009-0.019l-2.307-4.632l-0.149-0.308
					l0.261-1.093l0.009,0.009l1.97,1.448l0.448-2.073l2.204-5.79l1.373,1.494v0.009l0.299,0.318l0.402,1.092
					c0,0,1.102,0.784,1.018,1.41c-0.084,0.626-1.018,5.435-1.018,5.435c-0.037,0.093-0.093,0.187-0.168,0.28
					C177.76,278.494,182.438,299.421,182.317,304.23z"/>
				<path style="fill:#EDA36B;" d="M174.332,273.955c0,0-0.598,1.952-2.045,1.774c-0.019,0-0.028,0-0.047-0.009l-2.307-4.632
					c0.019-0.448,0.065-0.915,0.121-1.392l1.97,1.448l0.448-2.073l2.204-5.79l1.373,1.494v0.009
					C177.423,269.323,174.332,273.955,174.332,273.955z"/>
				<path style="fill:#FFC593;" d="M160.178,274.977l8.743,3.192v-6.245c0,0,5.829-2.546,6.107-9.739
					c0.277-7.193-2.498-14.687-10.825-14.41c-8.327,0.278-9.576,9.021-8.882,12.49c0.694,3.47,4.58,8.049,4.58,8.049
					L160.178,274.977z"/>
				<path style="fill:#602945;" d="M155.667,248.469c0,0-2.984,1.804-5.412,7.911c-2.429,6.106-4.511,18.18-4.511,18.18l4.962,0.486
					l0.867-3.331l-0.069,3.331c0,0,6.358,0.713,8.535,0.694c0,0,0.347-7.494,0-10.478c-0.347-2.984-2.429-1.249-3.331-5.343
					c-0.902-4.094,2.221-3.4,3.053-2.012c0.833,1.388,0.971,2.637,0.971,2.637l0.763-0.416c0,0,1.318-4.025,0-6.8
					c0,0,4.719-1.388,6.939-1.18v-1.943l0.902,1.874l3.829,0.66c0,0,1.977,3.782,1.88,7.112c0,0,1.83-3.331,0.003-8.188
					C173.223,246.804,163.3,242.224,155.667,248.469z"/>
				<path style="fill:#602945;" d="M185.016,385.408c0,0.009,0,0.009,0,0.009l-29.855,5.304c0,0-9.833-37.746-9.413-51.352
					c0.411-13.597,5.566-20.227,5.566-20.227c20.423,3.362,24.551,0,24.551,0C186.407,337.25,185.044,384.502,185.016,385.408z"/>
				<path style="fill:#812C53;" d="M157.639,438.994c0,0-1.416,7.518-0.653,10.641c0.763,3.123,0.763,3.123,0.763,3.123h2.359
					v-2.776c0,0,2.637,1.596,4.094,2.29c1.457,0.694,12.144,1.11,13.601,0.486c1.457-0.625-8.258-5.898-8.258-5.898
					s-3.886,1.531-7.078-0.83C159.276,443.667,157.639,438.994,157.639,438.994z"/>
				<path style="fill:#FFC593;" d="M164.133,440.267c0,0,3.879,5.736,5.413,6.592c1.534,0.856-4.719,2.78-8.258-0.83
					c-3.539-3.611-3.54-6.747-3.54-6.747L164.133,440.267z"/>
				<path style="fill:#602945;" d="M160.119,273.574l7.772,4.219c0,0-2.925,1.829-5.493,1.519c-2.567-0.31-4.58-4.751-4.58-4.751
					L160.119,273.574z"/>
				<path style="fill:#602945;" d="M168.921,274.769l-1.03,3.024c0,0,0.891,1.278,1.898,0.931c1.006-0.347,0.764-2.983,0.764-2.983
					L168.921,274.769z"/>
				<path style="fill:#4C1E3C;" d="M185.016,385.408c0-0.252-0.056-9.432-7.723-28.37c-7.779-19.209-25.979-37.895-25.979-37.895
					c20.423,3.362,24.551,0,24.551,0C186.407,337.25,185.044,384.502,185.016,385.408z"/>
				<path style="fill:#EDA36B;" d="M161.325,266.805c0,0,1.786,4.333,7.596,5.118v1.65
					C168.921,273.574,161.725,273.709,161.325,266.805z"/>
				<path style="fill:#EDA36B;" d="M155.805,304.084c0,0,0,3.126-0.467,5.594C155.338,309.678,158.407,307.895,155.805,304.084z"/>
				<path style="fill:#EDA36B;" d="M171.879,395.547l11.751-6.427l-0.353-3.393l-12.617,2.242
					C170.66,387.968,171.797,395.061,171.879,395.547z"/>
				<polygon style="fill:#EDA36B;" points="168.917,396.224 156.491,397.192 156.74,390.441 169.695,388.14 				"/>
			</g>
		</g>
	</g>
</g>
</svg>
