<?xml version="1.0" encoding="utf-8"?>
<!-- Generator: Adobe Illustrator 27.5.0, SVG Export Plug-In . SVG Version: 6.00 Build 0)  -->
<svg version="1.1" xmlns="http://www.w3.org/2000/svg" xmlns:xlink="http://www.w3.org/1999/xlink" x="0px" y="0px"
	 viewBox="0 0 2500 2500" style="enable-background:new 0 0 2500 2500;" xml:space="preserve">
<g id="BG">
	<rect style="fill:#FFFFFF;" width="2500" height="2500"/>
</g>
<g id="phone">
	<g>
		<rect x="763.751" y="1198.574" style="fill:#BFF0FF;" width="1016.712" height="1001.574"/>
		<g>
			<defs>
				<rect id="SVGID_1_" x="765.553" y="901.383" width="1012.596" height="1296"/>
			</defs>
			<clipPath id="SVGID_00000124851053750557237040000014061532184150141857_">
				<use xlink:href="#SVGID_1_"  style="overflow:visible;"/>
			</clipPath>
			<g style="clip-path:url(#SVGID_00000124851053750557237040000014061532184150141857_);">
				<g>
					<g>
						<g>
							<path style="fill:#FDB477;" d="M1559.585,1637.946l129.658,323.016c-15.396,97.633-158.16,139.935-258.477,122.862
								l-362.281-217.848C953.167,1799.199,1224.989,1282.02,1559.585,1637.946z"/>
						</g>
						<path style="fill:#FDB477;" d="M1661.976,1896.278c340.916,530.246,444.859,848.199,597.64,1309.788
							c27.328,85.182-448.003,340.997-484.837,224.494c-90.403-500.584-237.274-1080.97-378.609-1388.645L1661.976,1896.278z"/>
						<g>
							<path style="fill:#D98641;" d="M1253.013,1967.081c0,0,94.456-6.199,188.875,22.277
								c55.104,16.619,75.114-24.147,56.915-70.181c-28.47-72.015-112.627-135.782-194.201-106.059
								C1232.888,1839.248,1209.63,1946.15,1253.013,1967.081z"/>
						</g>
					</g>
					<path style="fill:#FDB477;" d="M1484.569,1691.632c0,0-542.07-411.2-590.247-331.553
						c-55.176,91.217,517.513,445.314,517.513,445.314L1484.569,1691.632z"/>
					<g>
						<g>
							<g>
								<path style="fill:#48C6C6;" d="M1457.507,1968.861l-391.154-3.31c-24.409-0.207-44.102-21.07-43.996-46.575l3.518-845.664
									c0.102-24.595,19.582-44.526,43.519-44.541l383.563-0.237c24.127-0.015,43.809,19.983,43.951,44.69l4.893,849.594
									C1501.949,1948.444,1482.113,1969.069,1457.507,1968.861z"/>
								<path style="fill:#33201B;" d="M1462.922,1962.722c-1.625,0.2-3.288,0.293-4.943,0.278l-391.033-3.719
									c-20.974-0.2-38.074-18.49-37.984-40.752l3.399-844.736c0.086-21.471,17.002-38.953,37.575-38.987l383.539-0.633
									c0.6-0.001,1.206,0.013,1.802,0.04c9.651,0.443,18.66,4.582,25.384,11.646c6.873,7.22,10.682,16.775,10.74,26.921
									l4.799,850.455C1496.314,1943.391,1482.057,1960.368,1462.922,1962.722z"/>
								<polygon style="fill:#FFFFFF;" points="1477.699,1078.912 1482.241,1926.406 1041.724,1922.868 1044.896,1077.863 								
									"/>
								<g>
									<path style="fill:#4AC4D9;" d="M1435.26,1596.686h-344.691c-5.215,0-9.442-4.227-9.442-9.442v-169.68
										c0-5.215,4.227-9.442,9.442-9.442h344.691c5.215,0,9.442,4.227,9.442,9.442v169.68
										C1444.702,1592.459,1440.475,1596.686,1435.26,1596.686z"/>
									<path style="fill:#FFFFFF;" d="M1408.702,1462.013h-298.185c-0.242,0-0.439-0.196-0.439-0.439
										c0-0.243,0.197-0.439,0.439-0.439h298.185c0.242,0,0.439,0.196,0.439,0.439
										C1409.141,1461.817,1408.944,1462.013,1408.702,1462.013z"/>
									<path style="fill:#FFFFFF;" d="M1408.702,1525.223h-298.185c-0.242,0-0.439-0.196-0.439-0.439s0.197-0.439,0.439-0.439
										h298.185c0.242,0,0.439,0.196,0.439,0.439S1408.944,1525.223,1408.702,1525.223z"/>
									<path style="fill:#FFFFFF;" d="M1408.702,1494.44h-298.185c-0.242,0-0.439-0.196-0.439-0.439
										c0-0.243,0.197-0.439,0.439-0.439h298.185c0.242,0,0.439,0.196,0.439,0.439
										C1409.141,1494.244,1408.944,1494.44,1408.702,1494.44z"/>
									<path style="fill:#FFFFFF;" d="M1408.702,1557.267h-299.06l-0.376-112.726c-0.002-0.485,0.39-0.879,0.875-0.881
										c0.001,0,0.002,0,0.003,0c0.484,0,0.876,0.391,0.878,0.875l0.37,110.976h297.31c0.485,0,0.878,0.393,0.878,0.878
										C1409.58,1556.875,1409.187,1557.267,1408.702,1557.267z"/>
									<path style="fill:#FFFFFF;" d="M1264.4,1473.184l-67.835,65.2l-34.959-30.925l-51.689,48.289
										c-0.354,0.331-0.373,0.886-0.042,1.241c0.173,0.185,0.407,0.279,0.642,0.279c0.215,0,0.43-0.078,0.599-0.237l50.523-47.199
										l34.976,30.94l67.785-65.153V1473.184z"/>
									<path style="fill:#FFFFFF;" d="M1166.33,1508.757c0,2.6-2.108,4.707-4.707,4.707c-2.6,0-4.707-2.108-4.707-4.707
										c0-2.6,2.107-4.707,4.707-4.707C1164.223,1504.05,1166.33,1506.158,1166.33,1508.757z"/>
									<path style="fill:#FFFFFF;" d="M1201.858,1539.13c0,2.6-2.108,4.707-4.707,4.707c-2.6,0-4.707-2.108-4.707-4.707
										s2.107-4.707,4.707-4.707C1199.75,1534.423,1201.858,1536.53,1201.858,1539.13z"/>
									<path style="fill:#FFFFFF;" d="M1269.663,1473.678c0,2.6-2.108,4.707-4.707,4.707c-2.6,0-4.707-2.108-4.707-4.707
										c0-2.6,2.107-4.707,4.707-4.707C1267.556,1468.971,1269.663,1471.078,1269.663,1473.678z"/>
								</g>
								<g>
									<path style="fill:#4AC4D9;" d="M1247.487,1314.08h-155.94c-5.215,0-9.442-4.227-9.442-9.442v-121.192
										c0-5.215,4.227-9.442,9.442-9.442h155.94c5.215,0,9.442,4.227,9.442,9.442v121.192
										C1256.929,1309.852,1252.701,1314.08,1247.487,1314.08z"/>
									<path style="fill:#FDFDFF;" d="M1248.835,1284.315H1099.08v-103.253c0-0.441,0.357-0.798,0.798-0.798
										s0.798,0.357,0.798,0.798v101.658h148.16c0.441,0,0.798,0.357,0.798,0.798S1249.276,1284.315,1248.835,1284.315z"/>
									<rect x="1113.985" y="1251.901" style="fill:#FDFDFF;" width="16.532" height="31.617"/>
									<rect x="1137.03" y="1244.697" style="fill:#FDFDFF;" width="16.532" height="38.821"/>
									<rect x="1160.074" y="1230.089" style="fill:#FDFDFF;" width="16.532" height="53.429"/>
									<rect x="1183.118" y="1219.883" style="fill:#FDFDFF;" width="16.532" height="63.635"/>
									<rect x="1206.163" y="1197.871" style="fill:#FDFDFF;" width="16.532" height="85.646"/>
								</g>
								<g>
									<g>
										<path style="fill:#4AC4D9;" d="M1435.26,1314.08h-155.94c-5.215,0-9.442-4.227-9.442-9.442v-121.192
											c0-5.215,4.227-9.442,9.442-9.442h155.94c5.215,0,9.442,4.227,9.442,9.442v121.192
											C1444.702,1309.852,1440.475,1314.08,1435.26,1314.08z"/>
										<path style="fill:#FDFDFF;" d="M1436.608,1284.315h-149.755v-97.65c0-0.441,0.357-0.798,0.798-0.798
											s0.798,0.357,0.798,0.798v96.055h148.159c0.44,0,0.798,0.357,0.798,0.798S1437.049,1284.315,1436.608,1284.315z"/>
									</g>
									<path style="fill:#FDFDFF;" d="M1287.651,1283.518c25.088-2.184,28.582-103.056,65.802-57.831
										c35.359,42.963,37.22-36.82,75.641-36.82v93.762C1429.094,1282.628,1287.651,1283.518,1287.651,1283.518z"/>
								</g>
								<g>
									<path style="fill:#48C6C6;" d="M1444.826,1160.793h-362.549v-30.888h362.549V1160.793z M1083.148,1159.922h360.807v-29.146
										h-360.807V1159.922z"/>
									<rect x="1170.464" y="1140.161" style="fill:#48C6C6;" width="60.181" height="10.376"/>
									<rect x="1236.574" y="1140.161" style="fill:#48C6C6;" width="31.128" height="10.376"/>
									<rect x="1088.938" y="1140.161" style="fill:#48C6C6;" width="73.521" height="10.376"/>
								</g>
								<g>
									<rect x="1083.306" y="1333.776" style="fill:#CFFAFA;" width="172.538" height="9.783"/>
									<rect x="1083.306" y="1369.795" style="fill:#CFFAFA;" width="150.897" height="9.783"/>
									<rect x="1083.306" y="1351.563" style="fill:#CFFAFA;" width="261.772" height="9.783"/>
								</g>
							</g>
						</g>
						<g>
							<path style="fill:#48C6C6;" d="M1259.876,1661.215c-0.051,0-0.101-0.002-0.152-0.002
								c-55.839,0-101.106,45.267-101.106,101.106c0,55.839,45.267,101.106,101.106,101.106c16.926,0,32.877-4.165,46.894-11.518
								l-46.742-89.589V1661.215z"/>
							<path style="fill:#5B4E99;" d="M1306.618,1851.908c32.225-16.903,54.212-50.676,54.212-89.589h-100.954L1306.618,1851.908z"
								/>
							<path style="fill:#CFFAFA;" d="M1259.876,1661.215v101.104h100.954C1360.83,1706.531,1315.645,1661.297,1259.876,1661.215z"
								/>
						</g>
					</g>
					<path style="fill:#FDB477;" d="M1617.732,1972.176c-234.861-16.148-171.47-358.981-171.47-358.981
						s-84.028-108.575-71.563-175.959c12.467-67.361,48.437-54.374,48.437-54.374s1.992,2.716,5.624,7.778
						c6.814,9.533,19.453,27.399,35.365,50.97c45.354,67.202,117.352,180.772,157.766,280.11
						C1658.957,1817.021,1694.431,1977.431,1617.732,1972.176z"/>
					<path style="fill:#FFD3AD;" d="M1463.013,1440.58c-6.607,4.432-17.231,10.949-27.705,14.874
						c-26.717-30.3-9.73-62.234-7.66-65.844C1434.463,1399.143,1447.101,1417.009,1463.013,1440.58z"/>
					<g>
						<path style="fill:#FDB477;" d="M1026.021,1811.437c-12.897-3.725-28.454-15.384-46.034-37.813
							c-2.481-3.17-4.735-6.281-6.784-9.332c-58.608-87.07,49.659-130,49.659-130s9.837,36.218,25.596,64.115
							C1080.911,1755.743,1066.738,1823.213,1026.021,1811.437z"/>
						<path style="fill:#FFD3AD;" d="M1018.409,1799.157c-8.913-2.574-19.664-10.631-31.812-26.131
							c-1.715-2.191-3.272-4.341-4.688-6.449c1.866-5.403,6.164-13.541,15.954-22.864
							C1021.742,1745.666,1024.188,1786.968,1018.409,1799.157z"/>
					</g>
					<g>
						<path style="fill:#FDB477;" d="M1031.955,1958.079c-11.51,1.465-27.078-6.885-45.509-30.407
							c-2.788-3.563-5.213-7.028-7.297-10.392c-41.118-65.831,40.742-98.277,40.742-98.277s7.649,28.245,19.96,49.993
							C1062.404,1908.879,1056.096,1955.016,1031.955,1958.079z"/>
						<path style="fill:#FFD3AD;" d="M1027.085,1947.185c-8.538,1.087-20.086-5.107-33.757-22.555
							c-2.068-2.643-3.867-5.213-5.412-7.709c2.692-5.225,7.175-11.668,14.62-18.773
							C1023.245,1899.844,1028.93,1929.107,1027.085,1947.185z"/>
					</g>
					<path style="fill:#FDB477;" d="M1030.908,1707.458c-13.734-2.029-30.909-13.65-50.662-38.854
						c-1.228-1.552-2.389-3.106-3.503-4.639c-65.768-90.2,46.379-134.67,46.379-134.67s9.837,36.219,25.595,64.094
						C1079.893,1648.496,1068.039,1712.977,1030.908,1707.458z"/>
					<path style="fill:#FFD3AD;" d="M1022.286,1694.405c-9.131-1.349-20.55-9.075-33.682-25.832
						c-0.817-1.032-1.588-2.065-2.329-3.084c1.528-5.129,5.491-13.579,15.79-23.389
						C1024.408,1643.927,1027.236,1681.564,1022.286,1694.405z"/>
				</g>
			</g>
		</g>
	</g>
	<g>
		<circle style="fill:#AAE0FF;" cx="1109.416" cy="971.753" r="15.657"/>
		<g>
			<path style="fill:#AAE0FF;" d="M1053.995,922.678l-6.647-7.566c37.276-37.419,95.379-36.037,130.828,3.083l-7.009,7.232
				C1139.385,890.477,1087.405,889.245,1053.995,922.678z"/>
			<path style="fill:#AAE0FF;" d="M1067.798,938.389l-6.647-7.566c29.248-29.141,74.636-28.07,102.47,2.391l-7.008,7.232
				C1132.446,914.154,1093.179,913.233,1067.798,938.389z"/>
			<path style="fill:#AAE0FF;" d="M1081.159,953.597l-6.647-7.566c21.481-21.133,54.552-20.362,75.019,1.721l-7.008,7.232
				C1125.726,937.069,1098.772,936.448,1081.159,953.597z"/>
		</g>
	</g>
</g>
<g id="icons">
	<g id="machine_Arm_02">
		<g>
			<defs>
				
					<rect id="SVGID_00000087379827818804817240000008936838863018172034_" x="1720.532" y="419.881" width="411.249" height="405.126"/>
			</defs>
			<use xlink:href="#SVGID_00000087379827818804817240000008936838863018172034_"  style="overflow:visible;fill:#E6F9FF;"/>
			<clipPath id="SVGID_00000150814078457167988610000005060255048387174026_">
				<use xlink:href="#SVGID_00000087379827818804817240000008936838863018172034_"  style="overflow:visible;"/>
			</clipPath>
			<g style="clip-path:url(#SVGID_00000150814078457167988610000005060255048387174026_);">
				<g>
					<rect x="2029.744" y="553.888" style="fill:#241F3C;" width="11.062" height="51.256"/>
					<path style="fill:#48C6C6;" d="M2041.985,589.502h-12.966c-2.302,1.883-3.769,4.746-3.763,7.952l0.024,9.379l20.492-0.037
						l-0.024-9.379C2045.742,594.224,2044.277,591.377,2041.985,589.502z"/>
					<path style="fill:#241F3C;" d="M2024.826,609.885L2024.826,609.885c-3.632,0-6.147,3.628-4.871,7.029l10.425,27.796
						c0.282,0.751,1.067,1.187,1.853,1.029l0,0c0.837-0.168,1.404-0.951,1.302-1.798l-3.544-29.475
						C2029.677,611.852,2027.459,609.885,2024.826,609.885z"/>
					<path style="fill:#241F3C;" d="M2046.644,609.885L2046.644,609.885c3.632,0,6.147,3.628,4.871,7.029l-10.425,27.796
						c-0.282,0.751-1.067,1.187-1.853,1.029l0,0c-0.837-0.168-1.403-0.951-1.302-1.798l3.544-29.475
						C2041.793,611.852,2044.011,609.885,2046.644,609.885z"/>
					<g>
						<rect x="2023.485" y="606.791" style="fill:#241F3C;" width="24.219" height="2.938"/>
						<path style="fill:#241F3C;" d="M2030.078,610.036c0,1.31-1.062,2.372-2.372,2.372s-2.372-1.062-2.372-2.372
							c0-1.31,1.062-2.372,2.372-2.372S2030.078,608.726,2030.078,610.036z"/>
						<path style="fill:#241F3C;" d="M2045.77,610.036c0,1.31-1.062,2.372-2.372,2.372s-2.372-1.062-2.372-2.372
							c0-1.31,1.062-2.372,2.372-2.372S2045.77,608.726,2045.77,610.036z"/>
					</g>
				</g>
				<g>
					<rect x="1982.377" y="545.399" style="fill:#241F3C;" width="52.752" height="16.972"/>
					<path style="fill:#48C6C6;" d="M1988.799,572.463h-34.174c-10.26,0-18.578-8.318-18.578-18.578l0,0
						c0-10.26,8.318-18.578,18.578-18.578h34.174V572.463z"/>
					<path style="fill:#48C6C6;" d="M2033.065,572.463h-24.083v-37.156h24.083c10.26,0,18.578,8.318,18.578,18.578l0,0
						C2051.643,564.145,2043.325,572.463,2033.065,572.463z"/>
					<g>
						<path style="fill:#241F3C;" d="M2037.447,562.753c-4.979,2.087-10.727-0.266-12.814-5.244
							c-2.087-4.979,0.266-10.727,5.244-12.814c4.979-2.087,10.727,0.266,12.814,5.244
							C2044.778,554.917,2042.425,560.666,2037.447,562.753z M2031.47,548.495c-2.883,1.208-4.245,4.537-3.037,7.42
							c1.208,2.883,4.537,4.245,7.42,3.037c2.883-1.208,4.245-4.537,3.037-7.42C2037.681,548.649,2034.353,547.287,2031.47,548.495z
							"/>
					</g>
				</g>
				<g>
					
						<rect x="1839.743" y="606.442" transform="matrix(0.5427 0.84 -0.84 0.5427 1367.9385 -1288.1498)" style="fill:#241F3C;" width="54.275" height="11.329"/>
					<path style="fill:#241F3C;" d="M1792.847,659.834L1792.847,659.834c-4.42-6.871-2.433-16.024,4.438-20.443l76.116-49.006
						l16.005,24.882l-76.116,49.006C1806.419,668.692,1797.266,666.705,1792.847,659.834z"/>
					<g>
						<path style="fill:#48C6C6;" d="M1882.838,638.85l82.347-60.981c10.583-7.837,13.241-22.555,6.069-33.599l0,0
							c-7.172-11.044-21.699-14.602-33.162-8.121l-89.032,50.417L1882.838,638.85z"/>
						<g>
							<path style="fill:#241F3C;" d="M1958.971,571.31c-7.394,4.801-17.315,2.693-22.116-4.701
								c-4.802-7.394-2.693-17.315,4.701-22.116c7.393-4.802,17.315-2.693,22.116,4.701
								C1968.474,556.588,1966.365,566.509,1958.971,571.31z M1945.222,550.138c-4.281,2.78-5.502,8.525-2.722,12.806
								c2.78,4.281,8.525,5.502,12.806,2.722c4.281-2.78,5.502-8.525,2.722-12.806
								C1955.247,548.579,1949.503,547.358,1945.222,550.138z"/>
						</g>
					</g>
				</g>
				<g>
					<path style="fill:#48C6C6;" d="M1914.871,787.524L1914.871,787.524c-20.036,17.374-50.362,15.216-67.736-4.819l-78.862-90.942
						c-17.374-20.035-15.217-50.362,4.819-67.736h0c20.036-17.374,50.362-15.216,67.736,4.819l78.862,90.942
						C1937.064,739.823,1934.906,770.15,1914.871,787.524z"/>
					<g>
						<path style="fill:#241F3C;" d="M1786.139,639.073c-10.548,9.147-11.683,25.114-2.536,35.662
							c9.147,10.548,25.114,11.686,35.662,2.539c10.55-9.148,11.684-25.115,2.537-35.663
							C1812.655,631.062,1796.689,629.924,1786.139,639.073z M1812.607,669.595c-6.307,5.469-15.855,4.79-21.326-1.519
							c-5.471-6.309-4.791-15.856,1.516-21.326c6.309-5.471,15.856-4.791,21.327,1.517
							C1819.595,654.577,1818.916,664.125,1812.607,669.595z"/>
					</g>
				</g>
				<g>
					<g>
						<path style="fill:#241F3C;" d="M1932.181,796.322h-87.258v-37.433c0-24.096,19.533-43.629,43.629-43.629h0
							c24.095,0,43.629,19.533,43.629,43.629V796.322z"/>
						<g>
							<path style="fill:#48C6C6;" d="M1876.038,743.26c-8.28,7.18-9.17,19.712-1.99,27.992c7.18,8.28,19.712,9.172,27.992,1.993
								c8.281-7.181,9.171-19.713,1.992-27.993C1896.851,736.972,1884.319,736.08,1876.038,743.26z M1896.813,767.218
								c-4.951,4.293-12.445,3.76-16.739-1.192c-4.294-4.952-3.761-12.446,1.19-16.739c4.952-4.294,12.446-3.761,16.74,1.191
								C1902.298,755.43,1901.765,762.924,1896.813,767.218z"/>
						</g>
					</g>
					<path style="fill:#312A52;" d="M1972.983,838.74h-166.531v-23.308c0-11.774,9.545-21.319,21.319-21.319h123.892
						c11.775,0,21.32,9.545,21.32,21.319V838.74z"/>
					<rect x="1779.095" y="825.073" style="fill:#241F3C;" width="220.979" height="44.628"/>
				</g>
			</g>
		</g>
	</g>
	<g id="data_02">
		<g>
			<path style="fill:#48C6C6;" d="M2175.323,1063.979h-90.491c-7.086,0-12.831-5.745-12.831-12.831l0,0
				c0-7.086,5.745-12.831,12.831-12.831h90.491c7.086,0,12.831,5.745,12.831,12.831l0,0
				C2188.154,1058.234,2182.41,1063.979,2175.323,1063.979z"/>
			<path style="fill:#48C6C6;" d="M2175.323,1110.575h-90.491c-7.086,0-12.831-5.745-12.831-12.831l0,0
				c0-7.086,5.745-12.831,12.831-12.831h90.491c7.086,0,12.831,5.745,12.831,12.831l0,0
				C2188.154,1104.83,2182.41,1110.575,2175.323,1110.575z"/>
			<path style="fill:#48C6C6;" d="M2175.323,1157.171h-90.491c-7.086,0-12.831-5.745-12.831-12.831l0,0
				c0-7.086,5.745-12.831,12.831-12.831h90.491c7.086,0,12.831,5.745,12.831,12.831l0,0
				C2188.154,1151.426,2182.41,1157.171,2175.323,1157.171z"/>
		</g>
		<g>
			<path style="fill:#48C6C6;" d="M1889.722,1448.47c-31.453,16.504-67.258,25.849-105.249,25.849
				c-125.338,0-226.934-101.605-226.934-226.934c0-125.338,101.596-226.934,226.934-226.934h0.345v110.065
				c-64.55,0-116.869,52.319-116.869,116.869c0,64.54,52.319,116.869,116.869,116.869c19.508,0,37.893-4.776,54.062-13.235
				L1889.722,1448.47z"/>
			<path style="fill:#5B4E99;" d="M2011.406,1247.385c0,87.337-49.355,163.142-121.685,201.084l-50.842-97.45
				c37.322-19.508,62.797-58.602,62.797-103.634H2011.406z"/>
			<path style="fill:#CFFAFA;" d="M2011.406,1247.385h-109.73c0-64.55-52.319-116.869-116.859-116.869v-110.065
				C1909.988,1020.639,2011.406,1122.166,2011.406,1247.385z"/>
		</g>
	</g>
	<g id="data">
		<rect x="2033.394" y="1433.145" style="fill:#B3E0FF;" width="348.685" height="330.22"/>
		<rect x="2095.851" y="1612.927" style="fill:#FDFDFF;" width="32.973" height="95.282"/>
		<rect x="2141.813" y="1598.559" style="fill:#FDFDFF;" width="32.973" height="109.65"/>
		<rect x="2187.775" y="1569.423" style="fill:#FDFDFF;" width="32.973" height="138.786"/>
		<rect x="2233.737" y="1549.068" style="fill:#FDFDFF;" width="32.973" height="159.141"/>
		<rect x="2279.699" y="1505.165" style="fill:#FDFDFF;" width="32.973" height="203.044"/>
	</g>
	<g id="world">
		<g>
			<circle style="fill:#48C6C6;" cx="2047.198" cy="2036.685" r="172.104"/>
			<g>
				<g>
					<path style="fill:#FFFFFF;" d="M2185.413,1967.659c-1.719-3.438-3.569-6.805-5.537-10.089
						c-26.769-44.73-75.507-74.866-131.203-75.388c-0.498-0.012-0.984-0.012-1.482-0.012c-0.415,0-0.83,0-1.245,0.012
						c-55.791,0.439-104.635,30.599-131.428,75.388c-1.98,3.284-3.817,6.651-5.536,10.089
						c-10.433,20.782-16.301,44.232-16.301,69.022c0,25.513,6.212,49.603,17.202,70.824c1.778,3.438,3.687,6.805,5.714,10.089
						c27.006,43.77,75.234,73.124,130.231,73.598c0.45,0.012,0.913,0.012,1.363,0.012c0.498,0,0.984,0,1.482-0.012
						c54.949-0.51,103.129-29.852,130.112-73.598c2.027-3.284,3.936-6.651,5.726-10.089c10.99-21.221,17.202-45.311,17.202-70.824
						C2201.714,2011.891,2195.846,1988.441,2185.413,1967.659z M2173.036,2107.504c-1.944,3.45-4.031,6.817-6.248,10.089
						c-17.594,25.904-43.355,45.833-73.574,56.005h-0.012c-12.934,4.363-26.686,6.935-40.96,7.421
						c-1.233,0.047-2.478,0.083-3.734,0.083c-0.439,0.012-0.877,0.012-1.316,0.012c-0.379,0-0.759,0-1.138-0.012
						c-1.304,0-2.608-0.035-3.9-0.083c-12.187-0.415-23.995-2.347-35.234-5.619c-32.685-9.508-60.616-30.279-79.312-57.807
						c-2.217-3.272-4.304-6.639-6.248-10.089c-11.061-19.561-17.677-41.944-18.495-65.773c-0.071-1.672-0.095-3.355-0.095-5.05
						c0-1.683,0.024-3.367,0.095-5.039c0.783-23.106,7.042-44.849,17.487-63.983c1.885-3.45,3.912-6.817,6.07-10.089
						c18.684-28.441,47.148-49.911,80.557-59.609c11.227-3.26,23.011-5.193,35.175-5.608c1.292-0.047,2.596-0.083,3.9-0.083
						c0.38-0.012,0.759-0.012,1.138-0.012c0.439,0,0.877,0,1.316,0.012c1.256,0,2.501,0.036,3.734,0.083
						c14.274,0.486,28.026,3.059,40.96,7.422h0.012c30.907,10.409,57.167,31.013,74.76,57.795c2.157,3.272,4.185,6.639,6.07,10.089
						c10.445,19.134,16.704,40.877,17.487,63.983c0.071,1.672,0.095,3.355,0.095,5.039c0,1.695-0.024,3.379-0.095,5.05
						C2190.712,2065.56,2184.097,2087.943,2173.036,2107.504z"/>
					<rect x="1897.722" y="2031.641" style="fill:#FFFFFF;" width="298.944" height="10.088"/>
					<path style="fill:#FFFFFF;" d="M2185.413,1967.659h-276.431c1.719-3.438,3.557-6.805,5.536-10.089h265.358
						C2181.844,1960.854,2183.694,1964.22,2185.413,1967.659z"/>
					<path style="fill:#FFFFFF;" d="M2184.512,2107.504c-1.79,3.438-3.699,6.805-5.726,10.089h-263.188
						c-2.027-3.284-3.936-6.651-5.714-10.089H2184.512z"/>
				</g>
				<g>
					<path style="fill:#FFFFFF;" d="M2185.413,1967.659c-1.719-3.438-3.569-6.805-5.537-10.089
						c-26.769-44.73-75.507-74.866-131.203-75.388c-0.498-0.012-0.984-0.012-1.482-0.012c-0.415,0-0.83,0-1.245,0.012
						c-55.791,0.439-104.635,30.599-131.428,75.388c-1.98,3.284-3.817,6.651-5.536,10.089
						c-10.433,20.782-16.301,44.232-16.301,69.022c0,25.513,6.212,49.603,17.202,70.824c1.778,3.438,3.687,6.805,5.714,10.089
						c27.006,43.77,75.234,73.124,130.231,73.598c0.45,0.012,0.913,0.012,1.363,0.012c0.498,0,0.984,0,1.482-0.012
						c54.949-0.51,103.129-29.852,130.112-73.598c2.027-3.284,3.936-6.651,5.726-10.089c10.99-21.221,17.202-45.311,17.202-70.824
						C2201.714,2011.891,2195.846,1988.441,2185.413,1967.659z M2173.036,2107.504c-1.944,3.45-4.031,6.817-6.248,10.089
						c-17.594,25.904-43.355,45.833-73.574,56.005h-0.012c-12.934,4.363-26.686,6.935-40.96,7.421
						c-1.233,0.047-2.478,0.083-3.734,0.083c-0.439,0.012-0.877,0.012-1.316,0.012c-0.379,0-0.759,0-1.138-0.012
						c-1.304,0-2.608-0.035-3.9-0.083c-12.187-0.415-23.995-2.347-35.234-5.619c-32.685-9.508-60.616-30.279-79.312-57.807
						c-2.217-3.272-4.304-6.639-6.248-10.089c-11.061-19.561-17.677-41.944-18.495-65.773c-0.071-1.672-0.095-3.355-0.095-5.05
						c0-1.683,0.024-3.367,0.095-5.039c0.783-23.106,7.042-44.849,17.487-63.983c1.885-3.45,3.912-6.817,6.07-10.089
						c18.684-28.441,47.148-49.911,80.557-59.609c11.227-3.26,23.011-5.193,35.175-5.608c1.292-0.047,2.596-0.083,3.9-0.083
						c0.38-0.012,0.759-0.012,1.138-0.012c0.439,0,0.877,0,1.316,0.012c1.256,0,2.501,0.036,3.734,0.083
						c14.274,0.486,28.026,3.059,40.96,7.422h0.012c30.907,10.409,57.167,31.013,74.76,57.795c2.157,3.272,4.185,6.639,6.07,10.089
						c10.445,19.134,16.704,40.877,17.487,63.983c0.071,1.672,0.095,3.355,0.095,5.039c0,1.695-0.024,3.379-0.095,5.05
						C2190.712,2065.56,2184.097,2087.943,2173.036,2107.504z"/>
					<rect x="2042.149" y="1887.214" style="fill:#FFFFFF;" width="10.091" height="298.944"/>
					<path style="fill:#FFFFFF;" d="M1962.493,2036.685c0-39.89,7.245-77.153,20.4-104.924
						c15.37-32.446,37.604-49.594,64.301-49.594v10.088c-48.982,0-74.611,72.657-74.611,144.429
						c0,71.77,25.628,144.427,74.611,144.427v10.088C1988.999,2191.2,1962.493,2111.103,1962.493,2036.685z"/>
					<path style="fill:#FFFFFF;" d="M2047.194,2191.2v-10.088c56.474,0,82.195-74.867,82.195-144.427
						c0-69.562-25.721-144.429-82.195-144.429v-10.088c63.407,0,92.286,80.097,92.286,154.518
						C2139.48,2111.103,2110.601,2191.2,2047.194,2191.2z"/>
				</g>
			</g>
		</g>
		<g>
			<g>
				<path style="fill:#FFFFFF;" d="M2190.848,2212.352h-140.529v-174.288h140.529V2212.352z"/>
			</g>
			<g>
				
					<rect x="2078.08" y="2065.441" transform="matrix(-1 -1.224647e-16 1.224647e-16 -1 4292.1567 4300.6377)" style="fill:#48C6C6;" width="135.997" height="169.756"/>
				
					<rect x="2099.237" y="2093.311" transform="matrix(-1 -1.224647e-16 1.224647e-16 -1 4268.8213 4197.6626)" style="fill:#FFFFFF;" width="70.347" height="11.041"/>
				
					<rect x="2099.237" y="2119.25" transform="matrix(-1 -1.224647e-16 1.224647e-16 -1 4289.6255 4249.541)" style="fill:#FFFFFF;" width="91.151" height="11.041"/>
				
					<rect x="2099.237" y="2145.189" transform="matrix(-1 -1.224647e-16 1.224647e-16 -1 4289.6255 4301.4194)" style="fill:#FFFFFF;" width="91.151" height="11.041"/>
				
					<rect x="2099.237" y="2171.128" transform="matrix(-1 -1.224647e-16 1.224647e-16 -1 4289.6255 4353.2974)" style="fill:#FFFFFF;" width="91.151" height="11.041"/>
				
					<rect x="2099.237" y="2197.067" transform="matrix(-1 -1.224647e-16 1.224647e-16 -1 4289.6255 4405.1758)" style="fill:#FFFFFF;" width="91.151" height="11.041"/>
			</g>
		</g>
	</g>
	<g id="factory">
		<g>
			<rect x="979" y="282.489" style="fill:#B8F5E9;" width="533.106" height="505.532"/>
			<g>
				<g>
					<polygon style="fill:#312A52;" points="1336.367,788.314 1336.367,714.643 1292.699,590.542 1292.699,517.482 
						1199.764,517.482 1199.764,590.542 1156.095,714.643 1156.095,788.314 					"/>
					<rect x="1194.165" y="517.202" style="fill:#312A52;" width="102.826" height="4.292"/>
				</g>
				<g>
					<g>
						<polygon style="fill:#48C6C6;" points="1620.793,777.048 1620.793,593.328 1525.814,521.814 1434.665,593.328 
							1243.172,593.328 1243.172,777.048 						"/>
						<rect x="1263.338" y="643.885" style="fill:#312A52;" width="40.265" height="38.014"/>
						<rect x="1312.969" y="643.885" style="fill:#312A52;" width="40.265" height="38.014"/>
						<rect x="1263.338" y="705.133" style="fill:#3BA3A3;" width="40.265" height="68.17"/>
						<rect x="1305.82" y="705.133" style="fill:#3BA3A3;" width="40.265" height="68.17"/>
						<rect x="1360.87" y="705.133" style="fill:#3BA3A3;" width="40.265" height="68.17"/>
						<rect x="1403.352" y="705.133" style="fill:#3BA3A3;" width="40.265" height="68.17"/>
						<rect x="1456.87" y="705.133" style="fill:#3BA3A3;" width="40.265" height="68.17"/>
						<rect x="1499.352" y="705.133" style="fill:#3BA3A3;" width="40.265" height="68.17"/>
						<rect x="1561.139" y="705.133" style="fill:#3BA3A3;" width="40.265" height="68.17"/>
						<rect x="1362.6" y="643.885" style="fill:#312A52;" width="40.265" height="38.014"/>
						<rect x="1412.231" y="643.885" style="fill:#312A52;" width="40.265" height="38.014"/>
						<rect x="1461.862" y="643.885" style="fill:#312A52;" width="40.265" height="38.014"/>
						<rect x="1511.493" y="643.885" style="fill:#312A52;" width="40.265" height="38.014"/>
						<rect x="1561.124" y="643.885" style="fill:#312A52;" width="40.265" height="38.014"/>
						<polygon style="fill:#48C6C6;" points="1424.37,601.029 1369.52,601.029 1372.28,545.559 1373.68,517.469 1377.01,450.579 
							1416.88,450.579 1420.21,517.469 1421.61,545.559 						"/>
						<polygon style="fill:#48C6C6;" points="1349.76,601.029 1303.48,601.029 1306.24,545.559 1307.64,517.469 1309.8,474.069 
							1343.44,474.069 1345.6,517.469 1347,545.559 						"/>
						<rect x="1373.421" y="450.42" style="fill:#48C6C6;" width="47.904" height="2.809"/>
					</g>
					<rect x="1306.197" y="473.686" style="fill:#48C6C6;" width="41.745" height="2.809"/>
				</g>
				<rect x="1220.197" y="774.154" style="fill:#48C6C6;" width="421.277" height="14.16"/>
				<g>
					<g>
						<polygon style="fill:#FFFFFF;" points="1205.409,788.778 1205.409,714.641 1182.725,650.164 1161.741,590.543 
							1161.741,517.48 1068.801,517.48 1068.801,590.543 1047.816,650.164 1025.132,714.641 1025.132,788.778 						"/>
						<rect x="1063.203" y="517.202" style="fill:#FFFFFF;" width="102.826" height="4.292"/>
					</g>
					<polygon style="fill:#48C6C6;" points="1182.725,650.164 1047.816,650.164 1068.801,590.543 1068.801,562.267 
						1161.741,562.267 1161.741,590.543 					"/>
				</g>
				<polygon style="fill:#FFFFFF;" points="1345.6,517.469 1347,545.559 1306.24,545.559 1307.64,517.469 				"/>
				<polygon style="fill:#FFFFFF;" points="1421.61,545.559 1372.28,545.559 1373.68,517.469 1420.21,517.469 				"/>
			</g>
		</g>
		<g>
			
				<ellipse transform="matrix(0.7071 -0.7071 0.7071 0.7071 111.8941 1108.2228)" style="fill:#FFFFFF;" cx="1393.69" cy="419.043" rx="17.617" ry="17.617"/>
			
				<ellipse transform="matrix(0.3827 -0.9239 0.9239 0.3827 493.0012 1517.7019)" style="fill:#FFFFFF;" cx="1382.201" cy="389.937" rx="25.277" ry="25.277"/>
			
				<ellipse transform="matrix(0.7071 -0.7071 0.7071 0.7071 149.8709 1062.0344)" style="fill:#FFFFFF;" cx="1356.924" cy="350.107" rx="36.766" ry="36.766"/>
			
				<ellipse transform="matrix(0.9732 -0.2298 0.2298 0.9732 -35.0422 313.4641)" style="fill:#FFFFFF;" cx="1328.584" cy="307.213" rx="57.447" ry="57.447"/>
		</g>
		<g>
			<circle style="fill:#FFFFFF;" cx="1314.992" cy="445.966" r="17.617"/>
			<circle style="fill:#FFFFFF;" cx="1303.502" cy="416.86" r="25.277"/>
			
				<ellipse transform="matrix(0.7071 -0.7071 0.7071 0.7071 107.7831 1014.2718)" style="fill:#FFFFFF;" cx="1278.226" cy="377.03" rx="36.766" ry="36.766"/>
			<circle style="fill:#FFFFFF;" cx="1249.885" cy="334.137" r="57.447"/>
			
				<ellipse transform="matrix(0.7071 -0.7071 0.7071 0.7071 148.7373 940.3742)" style="fill:#FFFFFF;" cx="1209.501" cy="290.645" rx="73.017" ry="73.017"/>
		</g>
		<path style="fill:#00CCAF;" d="M1104.493,254.089c-43.487,0-78.734,35.247-78.734,78.735c0,43.483,78.734,118.482,78.734,118.482
			s78.734-75,78.734-118.482C1183.228,289.336,1147.976,254.089,1104.493,254.089z M1104.493,354.607
			c-14.777,0-26.757-11.975-26.757-26.752c0-14.777,11.979-26.757,26.757-26.757c14.773,0,26.752,11.98,26.752,26.757
			C1131.245,342.632,1119.266,354.607,1104.493,354.607z"/>
	</g>
	<g id="machine_Arm_01">
		<g>
			<defs>
				
					<rect id="SVGID_00000002359152253349740070000014364662328578837385_" x="229.924" y="512.548" width="630.619" height="621.23"/>
			</defs>
			<clipPath id="SVGID_00000114052830125723267060000018029506977782926225_">
				<use xlink:href="#SVGID_00000002359152253349740070000014364662328578837385_"  style="overflow:visible;"/>
			</clipPath>
			
				<rect x="229.924" y="512.548" style="clip-path:url(#SVGID_00000114052830125723267060000018029506977782926225_);fill:#D9F0FF;" width="630.619" height="621.23"/>
			<g style="clip-path:url(#SVGID_00000114052830125723267060000018029506977782926225_);">
				<path style="fill:#48C6C6;" d="M487.42,510.835h-134.23c-20.578,0-37.259-16.682-37.259-37.259v0
					c0-20.578,16.682-37.259,37.259-37.259h134.23c20.578,0,37.26,16.682,37.26,37.259v0
					C524.68,494.153,507.998,510.835,487.42,510.835z"/>
				<rect x="406.089" y="556.997" style="fill:#241F3C;" width="25.006" height="111.608"/>
				
					<rect x="461.491" y="830.474" transform="matrix(0.6697 -0.7426 0.7426 0.6697 -455.1635 662.6185)" style="fill:#241F3C;" width="111.608" height="25.006"/>
				
					<rect x="424.806" y="919.622" transform="matrix(0.9999 -0.0108 0.0108 0.9999 -10.3551 4.7994)" style="fill:#241F3C;" width="25.006" height="74.958"/>
				<path style="fill:#48C6C6;" d="M418.592,586.907L418.592,586.907c-13.797,0-24.981-11.184-24.981-24.981V481.09
					c0-13.797,11.184-24.981,24.981-24.981h0c13.797,0,24.981,11.184,24.981,24.981v80.836
					C443.573,575.723,432.389,586.907,418.592,586.907z"/>
				<g>
					<path style="fill:#241F3C;" d="M412.849,548.411c-7.385,3.188-10.799,11.79-7.611,19.174
						c3.188,7.385,11.79,10.799,19.174,7.611c7.385-3.188,10.799-11.79,7.611-19.174
						C428.835,548.636,420.234,545.222,412.849,548.411z"/>
				</g>
				<g>
					<g>
						<path style="fill:#241F3C;" d="M345.755,455.237c-9.69,4.062-14.269,15.25-10.207,24.94c4.062,9.69,15.25,14.269,24.94,10.207
							c9.69-4.062,14.269-15.25,10.207-24.94C366.633,455.754,355.445,451.175,345.755,455.237z"/>
					</g>
					<g>
						<path style="fill:#241F3C;" d="M479.863,456.254c-9.646,4.165-14.106,15.401-9.941,25.047
							c4.165,9.646,15.401,14.106,25.047,9.941c9.646-4.165,14.106-15.401,9.942-25.047
							C500.745,456.548,489.509,452.089,479.863,456.254z"/>
					</g>
				</g>
				<g>
					<path style="fill:#48C6C6;" d="M527.952,826.82L399.289,709.099c-19.725-18.047-21.085-48.667-3.038-68.391l0,0
						c18.047-19.725,48.667-21.085,68.391-3.038l128.664,117.72c19.724,18.047,21.084,48.667,3.038,68.391l0,0
						C578.297,843.506,547.677,844.866,527.952,826.82z"/>
					<g>
						<g>
							<path style="fill:#241F3C;" d="M440.921,649.286c-12.85-4.605-27.051,2.104-31.656,14.954
								c-4.605,12.85,2.104,27.051,14.954,31.656c12.851,4.605,27.052-2.104,31.656-14.954
								C460.48,668.092,453.772,653.891,440.921,649.286z"/>
						</g>
						<g>
							<path style="fill:#241F3C;" d="M568.576,767.874c-12.899-4.468-27.027,2.391-31.496,15.29
								c-4.468,12.899,2.391,27.027,15.29,31.495c12.899,4.468,27.028-2.391,31.496-15.289
								C588.334,786.471,581.475,772.342,568.576,767.874z"/>
						</g>
					</g>
				</g>
				<g>
					<path style="fill:#48C6C6;" d="M520.261,879.915l-62.761,70.146c-9.621,10.754-26.139,11.671-36.892,2.05l0,0
						c-10.754-9.621-11.671-26.139-2.05-36.892l62.761-70.146c9.622-10.754,26.139-11.671,36.892-2.05l0,0
						C528.965,852.644,529.882,869.161,520.261,879.915z"/>
					<g>
						<g>
							<path style="fill:#241F3C;" d="M427.442,928.806c-1.936,5.599,1.044,11.729,6.643,13.666
								c5.599,1.936,11.729-1.044,13.666-6.642c1.936-5.599-1.044-11.73-6.642-13.666
								C435.509,920.227,429.379,923.207,427.442,928.806z"/>
						</g>
					</g>
					<g>
						<g>
							<path style="fill:#241F3C;" d="M492.367,858.019c-1.936,5.599,1.043,11.729,6.642,13.666s11.729-1.044,13.666-6.642
								c1.936-5.599-1.043-11.729-6.642-13.666C500.434,849.44,494.303,852.419,492.367,858.019z"/>
						</g>
					</g>
				</g>
				<g>
					<g>
						<rect x="424.254" y="1034.613" style="fill:#241F3C;" width="24.716" height="10.381"/>
						<rect x="429.183" y="1040.567" style="fill:#241F3C;" width="14.858" height="15.515"/>
						<rect x="424.254" y="1034.613" style="fill:#241F3C;" width="24.716" height="10.381"/>
						<g>
							<path style="fill:#241F3C;" d="M449.549,1059.495h0.018l-0.018-0.01v-0.007h-0.012l-1.836-1.784
								c-2.786-2.706-6.517-4.22-10.401-4.22l0,0c-3.884,0-7.615,1.514-10.401,4.22l-1.836,1.784h-0.012v0.007l-0.018,0.01h0.018
								v12.284h-0.006l1.878,1.795c2.778,2.655,6.472,4.137,10.315,4.137h0.127c3.843,0,7.537-1.482,10.315-4.137l1.878-1.795
								h-0.006V1059.495z"/>
							<rect x="430.23" y="1069.96" style="fill:#241F3C;" width="14.138" height="9.921"/>
						</g>
						<polygon style="fill:#241F3C;" points="434.408,1062.997 434.408,1105.389 437.202,1108.129 440.168,1105.389 
							440.168,1062.997 						"/>
					</g>
					<g>
						<polygon style="fill:#48C6C6;" points="451.536,1039.753 421.689,1039.753 406.383,1023.086 466.841,1023.086 						"/>
					</g>
					<g>
						<polygon style="fill:#48C6C6;" points="420.597,975.667 452.628,975.667 469.053,986.99 404.172,986.99 						"/>
					</g>
					<rect x="402.201" y="984.698" style="fill:#241F3C;" width="68.823" height="39.371"/>
				</g>
			</g>
		</g>
		<g>
			<circle style="fill:#AAE0FF;" cx="418.023" cy="467.309" r="15.657"/>
			<g>
				<path style="fill:#AAE0FF;" d="M362.603,418.234l-6.647-7.566c37.276-37.419,95.379-36.037,130.827,3.083l-7.008,7.232
					C447.993,386.034,396.013,384.802,362.603,418.234z"/>
				<path style="fill:#AAE0FF;" d="M376.405,433.945l-6.647-7.566c29.248-29.141,74.636-28.07,102.471,2.391l-7.009,7.232
					C441.054,409.711,401.787,408.789,376.405,433.945z"/>
				<path style="fill:#AAE0FF;" d="M389.767,449.154l-6.647-7.566c21.48-21.133,54.552-20.362,75.019,1.721l-7.009,7.232
					C434.333,432.625,407.379,432.004,389.767,449.154z"/>
			</g>
		</g>
	</g>
	<g id="cloud">
		<g>
			<g id="cloud_1_">
				<path style="fill:#48C6C6;" d="M800.002,1882.034c0.853-6.297,1.447-12.675,1.447-19.206
					c0-78.536-63.666-142.202-142.202-142.202c-58.919,0-109.465,35.831-131.041,86.891c-17.558-15.634-40.626-25.213-65.986-25.213
					c-54.881,0-99.37,44.489-99.37,99.37h-18.544c-52.77,0-95.944,43.174-95.944,95.943v0.001c0,52.768,43.174,95.942,95.944,95.942
					h448.614c52.768,0,95.942-43.174,95.942-95.942v-0.001C888.864,1927.237,849.486,1885.701,800.002,1882.034z"/>
			</g>
			<g>
				<polygon style="fill:#5B4E99;" points="578.315,2104.328 578.315,2040.605 562.115,2040.605 562.115,2104.328 327.744,2104.328 
					327.744,2118.608 825.647,2118.608 825.647,2104.328 				"/>
				<rect x="477.007" y="1860.59" style="fill:#7AD0FF;" width="195.562" height="176.909"/>
				<g>
					<path style="fill:#FFFFFF;" d="M674.274,1913.992H475.303c-3.637,0-6.585-2.948-6.585-6.585v-40.232
						c0-3.637,2.948-6.585,6.585-6.585h198.971c3.637,0,6.585,2.948,6.585,6.585v40.232
						C680.859,1911.044,677.911,1913.992,674.274,1913.992z"/>
					<g>
						<rect x="477.725" y="1874.206" style="fill:#7AD0FF;" width="20.974" height="28.291"/>
						<rect x="509.187" y="1874.206" style="fill:#7AD0FF;" width="20.974" height="28.291"/>
						<rect x="540.648" y="1874.206" style="fill:#7AD0FF;" width="20.974" height="28.291"/>
					</g>
				</g>
				<g>
					<path style="fill:#FFFFFF;" d="M674.274,1977.402H475.303c-3.637,0-6.585-2.948-6.585-6.585v-40.232
						c0-3.637,2.948-6.585,6.585-6.585h198.971c3.637,0,6.585,2.948,6.585,6.585v40.232
						C680.859,1974.454,677.911,1977.402,674.274,1977.402z"/>
					<g>
						<rect x="477.725" y="1937.616" style="fill:#7AD0FF;" width="20.974" height="28.291"/>
						<rect x="509.187" y="1937.616" style="fill:#7AD0FF;" width="20.974" height="28.291"/>
						<rect x="540.648" y="1937.616" style="fill:#7AD0FF;" width="20.974" height="28.291"/>
					</g>
				</g>
				<g>
					<path style="fill:#FFFFFF;" d="M674.274,2040.813H475.303c-3.637,0-6.585-2.948-6.585-6.585v-40.231
						c0-3.637,2.948-6.585,6.585-6.585h198.971c3.637,0,6.585,2.948,6.585,6.585v40.231
						C680.859,2037.865,677.911,2040.813,674.274,2040.813z"/>
					<g>
						<rect x="477.725" y="2001.027" style="fill:#7AD0FF;" width="20.974" height="28.291"/>
						<rect x="509.187" y="2001.027" style="fill:#7AD0FF;" width="20.974" height="28.291"/>
						<rect x="540.648" y="2001.027" style="fill:#7AD0FF;" width="20.974" height="28.291"/>
					</g>
				</g>
				<rect x="533.142" y="2092.363" style="fill:#5B4E99;" width="74.969" height="36.169"/>
			</g>
		</g>
		<g>
			<g>
				<g>
					<g>
						<path style="fill:#D9FFFF;" d="M283.926,1711.269L283.926,1711.269c0.003-0.291,0.005-0.418,0.005-0.448
							C283.93,1710.875,283.926,1711.269,283.926,1711.269z"/>
						<path style="fill:#D9FFFF;" d="M283.926,1711.269L283.926,1711.269c0.003-0.291,0.005-0.418,0.005-0.448
							C283.93,1710.875,283.926,1711.269,283.926,1711.269z"/>
						<path style="fill:#D9FFFF;" d="M458.093,1713.187c0,0,0.004-0.394,0.005-0.448
							C458.098,1712.769,458.096,1712.896,458.093,1713.187L458.093,1713.187z"/>
						<path style="fill:#D9FFFF;" d="M458.093,1713.187c0,0,0.004-0.394,0.005-0.448
							C458.098,1712.769,458.096,1712.896,458.093,1713.187L458.093,1713.187z"/>
						<path style="fill:#FFFFFF;" d="M371.679,1665.004c-20.44,21.508-52.944,39.032-87.651,46.362
							c-0.026,2.304-0.168,15.069-0.821,73.903c-0.872,78.485,73.915,117.332,85.526,123.294
							c11.322-5.098,87.564-42.894,88.436-121.379c0.654-58.835,0.796-71.599,0.821-73.903
							C423.453,1705.189,391.636,1686.957,371.679,1665.004z"/>
					</g>
				</g>
				<g>
					<g>
						<path style="fill:#00BDAB;" d="M371.377,1679.188c-19.996,18.019-47.626,32.103-77.957,39.679l-0.739,66.498
							c-0.338,30.427,11.624,58.034,35.554,82.056c15.724,15.783,32.3,25.617,40.716,30.046c0.364-0.181,0.764-0.385,1.158-0.586
							l1.44-217.537C371.492,1679.291,371.433,1679.24,371.377,1679.188z"/>
					</g>
					<g>
						<path style="fill:#00BDAB;" d="M371.549,1679.344l-1.44,217.537c8.811-4.489,24.833-13.783,40.216-28.556
							c24.458-23.489,37.03-50.825,37.368-81.253l0.739-66.499C418.363,1712.355,391.126,1697.724,371.549,1679.344z"/>
					</g>
				</g>
			</g>
			<g>
				<path style="fill:#FFFFFF;" d="M333.379,1769.207v53.651c0,5.973,72.942,5.973,72.942,0v-53.651H333.379z M373.54,1797.698
					v15.206c0,2.026-1.647,3.707-3.673,3.707c-2.059,0-3.707-1.682-3.707-3.707v-15.24c-3.124-1.407-5.321-4.566-5.321-8.204
					c0-4.978,4.05-8.993,9.027-8.993c4.977,0,8.994,4.016,8.994,8.993C378.86,1793.132,376.697,1796.29,373.54,1797.698z"/>
				<path style="fill:#FFFFFF;" d="M399.936,1765.383h-7.384v-3.613c0-12.518-10.184-22.702-22.699-22.702
					c-12.518,0-22.702,10.184-22.702,22.702v3.613h-7.384v-3.613c0-16.589,13.496-30.085,30.085-30.085
					c16.587,0,30.083,13.496,30.083,30.085V1765.383z"/>
			</g>
		</g>
	</g>
	<g id="message">
		<g>
			<g>
				<path style="fill:#48C6C6;" d="M262.233,1519.617l-68.22-51.426h149.122l-67.863,51.41
					C271.418,1522.521,266.094,1522.527,262.233,1519.617z"/>
				<path style="fill:#48C6C6;" d="M349.396,1476.735v103.759H187.757v-103.759l72.454,54.347c5.063,3.797,12.026,3.79,17.081-0.019
					L349.396,1476.735z"/>
			</g>
		</g>
		<g>
			<g>
				<path style="fill:#00CCAF;" d="M905.037,1241.497H675.255c-12.511,0-22.654-10.142-22.654-22.654v-91.239
					c0-12.511,10.143-22.654,22.654-22.654h229.782c12.511,0,22.654,10.142,22.654,22.654v91.239
					C927.691,1231.355,917.548,1241.497,905.037,1241.497z"/>
				<polygon style="fill:#00CCAF;" points="882.285,1219.432 882.285,1281.035 819.498,1218.247 				"/>
			</g>
			<g>
				
					<ellipse transform="matrix(0.7071 -0.7071 0.7071 0.7071 -623.9376 842.6697)" style="fill:#FFFFFF;" cx="705.224" cy="1174.494" rx="11.987" ry="11.987"/>
				
					<ellipse transform="matrix(0.3001 -0.9539 0.9539 0.3001 -598.6404 1533.0931)" style="fill:#FFFFFF;" cx="745.416" cy="1174.494" rx="11.987" ry="11.987"/>
				
					<ellipse transform="matrix(0.925 -0.3799 0.3799 0.925 -387.2924 386.5093)" style="fill:#FFFFFF;" cx="785.609" cy="1174.494" rx="11.987" ry="11.987"/>
				
					<ellipse transform="matrix(0.5588 -0.8293 0.8293 0.5588 -609.6671 1203.0206)" style="fill:#FFFFFF;" cx="825.802" cy="1174.494" rx="11.987" ry="11.987"/>
				
					<ellipse transform="matrix(0.7071 -0.7071 0.7071 0.7071 -576.8487 956.3522)" style="fill:#FFFFFF;" cx="865.995" cy="1174.494" rx="11.987" ry="11.987"/>
			</g>
		</g>
		<g>
			<path style="fill:#AAE0FF;" d="M395.537,1288.509c-2.34,9.018-2.79,18.081-1.598,26.768l7.513-1.021
				c1.112,8.191,3.868,16.006,7.963,23.01l-6.52,3.834c4.535,7.712,10.541,14.559,17.788,20.063l1.03-1.337l3.563-4.69
				c6.325,4.82,13.721,8.491,21.904,10.614l-1.907,7.348c9.018,2.34,18.081,2.79,26.776,1.57l-1.021-7.514
				c8.184-1.085,15.998-3.84,23.002-7.935l3.834,6.521c7.712-4.535,14.566-10.57,20.07-17.816l-0.028-0.007l-1.732-1.341
				l-4.267-3.246c4.82-6.325,8.484-13.692,10.607-21.876l7.349,1.907c2.34-9.018,2.797-18.109,1.577-26.803l-7.513,1.021
				c-1.085-8.184-3.847-15.971-7.943-22.975l6.521-3.834c-4.534-7.712-10.569-14.566-17.816-20.071l-4.594,6.027
				c-6.325-4.82-13.692-8.484-21.876-10.607l1.906-7.348c-9.018-2.34-18.108-2.797-26.803-1.577l1.021,7.514
				c-8.183,1.085-15.971,3.847-22.975,7.942l-3.833-6.52c-7.74,4.527-14.566,10.569-20.071,17.816l0.048,0.042l3.97,3.021
				l2.009,1.531c-4.82,6.325-8.492,13.72-10.608,21.876L395.537,1288.509z M430.246,1297.515
				c4.651-17.925,22.95-28.685,40.875-24.034c17.953,4.658,28.713,22.957,24.062,40.882c-4.658,17.953-22.958,28.712-40.911,24.054
				C436.347,1333.767,425.588,1315.467,430.246,1297.515z"/>
		</g>
		<g>
			<path style="fill:#AAE0FF;" d="M732.188,1661.236v-86.224c-5.765-0.212-11.595-1.027-17.412-2.536
				c-43.122-11.189-69.007-55.212-57.801-98.401c9.179-35.379,40.462-59.136,75.213-60.356v-86.307
				c-6.634,0.12-13.211,0.64-19.695,1.55l2.457,18.076c-19.687,2.609-38.422,9.256-55.272,19.106l-9.222-15.686
				c-18.62,10.891-35.042,25.427-48.286,42.86l0.117,0.101l9.55,7.268l4.834,3.683c-11.596,15.216-20.429,33.008-25.52,52.627
				l-17.677-4.586c-5.629,21.695-6.713,43.499-3.844,64.397l18.075-2.457c2.676,19.705,9.306,38.506,19.156,55.355l-15.685,9.224
				c10.909,18.553,25.359,35.024,42.794,48.267l2.478-3.217l8.572-11.283c15.216,11.595,33.008,20.427,52.694,25.535l-4.587,17.678
				C706.182,1659.296,719.273,1661.025,732.188,1661.236z"/>
		</g>
	</g>
</g>
</svg>
